<?xml version="1.0" encoding="UTF-8" standalone="no"?>
<svg xmlns="http://www.w3.org/2000/svg" xmlns:xlink="http://www.w3.org/1999/xlink" contentScriptType="application/ecmascript" contentStyleType="text/css" height="501px" preserveAspectRatio="none" style="width:907px;height:501px;" version="1.1" viewBox="0 0 907 501" width="907px" zoomAndPan="magnify"><defs><filter height="300%" id="ffc4je7mynecb" width="300%" x="-1" y="-1"><feGaussianBlur result="blurOut" stdDeviation="2.0"/><feColorMatrix in="blurOut" result="blurOut2" type="matrix" values="0 0 0 0 0 0 0 0 0 0 0 0 0 0 0 0 0 0 .4 0"/><feOffset dx="4.0" dy="4.0" in="blurOut2" result="blurOut3"/><feBlend in="SourceGraphic" in2="blurOut3" mode="normal"/></filter></defs><g><!--MD5=[7283a9eed84464550b6d5ebf39c68b05]
class Mastermind--><rect fill="#FEFECE" filter="url(#ffc4je7mynecb)" height="48" id="Mastermind" style="stroke: #A80036; stroke-width: 1.5;" width="102" x="72" y="7"/><ellipse cx="87" cy="23" fill="#ADD1B2" rx="11" ry="11" style="stroke: #A80036; stroke-width: 1.0;"/><path d="M89.3438,18.6719 C88.4063,18.2344 87.8125,18.0938 86.9375,18.0938 C84.3125,18.0938 82.3125,20.1719 82.3125,22.8906 L82.3125,24.0156 C82.3125,26.5938 84.4219,28.4844 87.3125,28.4844 C88.5313,28.4844 89.6875,28.1875 90.4375,27.6406 C91.0156,27.2344 91.3438,26.7813 91.3438,26.3906 C91.3438,25.9375 90.9531,25.5469 90.4844,25.5469 C90.2656,25.5469 90.0625,25.625 89.875,25.8125 C89.4219,26.2969 89.4219,26.2969 89.2344,26.3906 C88.8125,26.6563 88.125,26.7813 87.3594,26.7813 C85.3125,26.7813 84.0156,25.6875 84.0156,23.9844 L84.0156,22.8906 C84.0156,21.1094 85.2656,19.7969 87,19.7969 C87.5781,19.7969 88.1875,19.9531 88.6563,20.2031 C89.1406,20.4844 89.3125,20.7031 89.4063,21.1094 C89.4688,21.5156 89.5,21.6406 89.6406,21.7656 C89.7813,21.9063 90.0156,22.0156 90.2344,22.0156 C90.5,22.0156 90.7656,21.875 90.9375,21.6563 C91.0469,21.5 91.0781,21.3125 91.0781,20.8906 L91.0781,19.4688 C91.0781,19.0313 91.0625,18.9063 90.9688,18.75 C90.8125,18.4844 90.5313,18.3438 90.2344,18.3438 C89.9375,18.3438 89.7344,18.4375 89.5156,18.75 L89.3438,18.6719 Z "/><text fill="#000000" font-family="sans-serif" font-size="12" lengthAdjust="spacingAndGlyphs" textLength="70" x="101" y="27.1543">Mastermind</text><line style="stroke: #A80036; stroke-width: 1.5;" x1="73" x2="173" y1="39" y2="39"/><line style="stroke: #A80036; stroke-width: 1.5;" x1="73" x2="173" y1="47" y2="47"/><!--MD5=[dd91eae41778c45e12552e5329e240e8]
class Turn--><rect fill="#FEFECE" filter="url(#ffc4je7mynecb)" height="48" id="Turn" style="stroke: #A80036; stroke-width: 1.5;" width="58" x="94" y="115"/><ellipse cx="109" cy="131" fill="#ADD1B2" rx="11" ry="11" style="stroke: #A80036; stroke-width: 1.0;"/><path d="M111.3438,126.6719 C110.4063,126.2344 109.8125,126.0938 108.9375,126.0938 C106.3125,126.0938 104.3125,128.1719 104.3125,130.8906 L104.3125,132.0156 C104.3125,134.5938 106.4219,136.4844 109.3125,136.4844 C110.5313,136.4844 111.6875,136.1875 112.4375,135.6406 C113.0156,135.2344 113.3438,134.7813 113.3438,134.3906 C113.3438,133.9375 112.9531,133.5469 112.4844,133.5469 C112.2656,133.5469 112.0625,133.625 111.875,133.8125 C111.4219,134.2969 111.4219,134.2969 111.2344,134.3906 C110.8125,134.6563 110.125,134.7813 109.3594,134.7813 C107.3125,134.7813 106.0156,133.6875 106.0156,131.9844 L106.0156,130.8906 C106.0156,129.1094 107.2656,127.7969 109,127.7969 C109.5781,127.7969 110.1875,127.9531 110.6563,128.2031 C111.1406,128.4844 111.3125,128.7031 111.4063,129.1094 C111.4688,129.5156 111.5,129.6406 111.6406,129.7656 C111.7813,129.9063 112.0156,130.0156 112.2344,130.0156 C112.5,130.0156 112.7656,129.875 112.9375,129.6563 C113.0469,129.5 113.0781,129.3125 113.0781,128.8906 L113.0781,127.4688 C113.0781,127.0313 113.0625,126.9063 112.9688,126.75 C112.8125,126.4844 112.5313,126.3438 112.2344,126.3438 C111.9375,126.3438 111.7344,126.4375 111.5156,126.75 L111.3438,126.6719 Z "/><text fill="#000000" font-family="sans-serif" font-size="12" lengthAdjust="spacingAndGlyphs" textLength="26" x="123" y="135.1543">Turn</text><line style="stroke: #A80036; stroke-width: 1.5;" x1="95" x2="151" y1="147" y2="147"/><line style="stroke: #A80036; stroke-width: 1.5;" x1="95" x2="151" y1="155" y2="155"/><!--MD5=[2cb47ba637a0d19583e6199456f6ad0b]
class Player--><rect fill="#FEFECE" filter="url(#ffc4je7mynecb)" height="48" id="Player" style="stroke: #A80036; stroke-width: 1.5;" width="68" x="7" y="223"/><ellipse cx="22" cy="239" fill="#ADD1B2" rx="11" ry="11" style="stroke: #A80036; stroke-width: 1.0;"/><path d="M24.3438,234.6719 C23.4063,234.2344 22.8125,234.0938 21.9375,234.0938 C19.3125,234.0938 17.3125,236.1719 17.3125,238.8906 L17.3125,240.0156 C17.3125,242.5938 19.4219,244.4844 22.3125,244.4844 C23.5313,244.4844 24.6875,244.1875 25.4375,243.6406 C26.0156,243.2344 26.3438,242.7813 26.3438,242.3906 C26.3438,241.9375 25.9531,241.5469 25.4844,241.5469 C25.2656,241.5469 25.0625,241.625 24.875,241.8125 C24.4219,242.2969 24.4219,242.2969 24.2344,242.3906 C23.8125,242.6563 23.125,242.7813 22.3594,242.7813 C20.3125,242.7813 19.0156,241.6875 19.0156,239.9844 L19.0156,238.8906 C19.0156,237.1094 20.2656,235.7969 22,235.7969 C22.5781,235.7969 23.1875,235.9531 23.6563,236.2031 C24.1406,236.4844 24.3125,236.7031 24.4063,237.1094 C24.4688,237.5156 24.5,237.6406 24.6406,237.7656 C24.7813,237.9063 25.0156,238.0156 25.2344,238.0156 C25.5,238.0156 25.7656,237.875 25.9375,237.6563 C26.0469,237.5 26.0781,237.3125 26.0781,236.8906 L26.0781,235.4688 C26.0781,235.0313 26.0625,234.9063 25.9688,234.75 C25.8125,234.4844 25.5313,234.3438 25.2344,234.3438 C24.9375,234.3438 24.7344,234.4375 24.5156,234.75 L24.3438,234.6719 Z "/><text fill="#000000" font-family="sans-serif" font-size="12" lengthAdjust="spacingAndGlyphs" textLength="36" x="36" y="243.1543">Player</text><line style="stroke: #A80036; stroke-width: 1.5;" x1="8" x2="74" y1="255" y2="255"/><line style="stroke: #A80036; stroke-width: 1.5;" x1="8" x2="74" y1="263" y2="263"/><!--MD5=[9563755d011c5cec7ec66dc53565a59e]
class Board--><rect fill="#FEFECE" filter="url(#ffc4je7mynecb)" height="48" id="Board" style="stroke: #A80036; stroke-width: 1.5;" width="68" x="582" y="115"/><ellipse cx="597" cy="131" fill="#ADD1B2" rx="11" ry="11" style="stroke: #A80036; stroke-width: 1.0;"/><path d="M599.3438,126.6719 C598.4063,126.2344 597.8125,126.0938 596.9375,126.0938 C594.3125,126.0938 592.3125,128.1719 592.3125,130.8906 L592.3125,132.0156 C592.3125,134.5938 594.4219,136.4844 597.3125,136.4844 C598.5313,136.4844 599.6875,136.1875 600.4375,135.6406 C601.0156,135.2344 601.3438,134.7813 601.3438,134.3906 C601.3438,133.9375 600.9531,133.5469 600.4844,133.5469 C600.2656,133.5469 600.0625,133.625 599.875,133.8125 C599.4219,134.2969 599.4219,134.2969 599.2344,134.3906 C598.8125,134.6563 598.125,134.7813 597.3594,134.7813 C595.3125,134.7813 594.0156,133.6875 594.0156,131.9844 L594.0156,130.8906 C594.0156,129.1094 595.2656,127.7969 597,127.7969 C597.5781,127.7969 598.1875,127.9531 598.6563,128.2031 C599.1406,128.4844 599.3125,128.7031 599.4063,129.1094 C599.4688,129.5156 599.5,129.6406 599.6406,129.7656 C599.7813,129.9063 600.0156,130.0156 600.2344,130.0156 C600.5,130.0156 600.7656,129.875 600.9375,129.6563 C601.0469,129.5 601.0781,129.3125 601.0781,128.8906 L601.0781,127.4688 C601.0781,127.0313 601.0625,126.9063 600.9688,126.75 C600.8125,126.4844 600.5313,126.3438 600.2344,126.3438 C599.9375,126.3438 599.7344,126.4375 599.5156,126.75 L599.3438,126.6719 Z "/><text fill="#000000" font-family="sans-serif" font-size="12" lengthAdjust="spacingAndGlyphs" textLength="36" x="611" y="135.1543">Board</text><line style="stroke: #A80036; stroke-width: 1.5;" x1="583" x2="649" y1="147" y2="147"/><line style="stroke: #A80036; stroke-width: 1.5;" x1="583" x2="649" y1="155" y2="155"/><!--MD5=[0992d3fdc9d3d7c02b735131bb70871d]
class Goal--><rect fill="#FEFECE" filter="url(#ffc4je7mynecb)" height="48" id="Goal" style="stroke: #A80036; stroke-width: 1.5;" width="59" x="13.5" y="331"/><ellipse cx="28.5" cy="347" fill="#ADD1B2" rx="11" ry="11" style="stroke: #A80036; stroke-width: 1.0;"/><path d="M30.8438,342.6719 C29.9063,342.2344 29.3125,342.0938 28.4375,342.0938 C25.8125,342.0938 23.8125,344.1719 23.8125,346.8906 L23.8125,348.0156 C23.8125,350.5938 25.9219,352.4844 28.8125,352.4844 C30.0313,352.4844 31.1875,352.1875 31.9375,351.6406 C32.5156,351.2344 32.8438,350.7813 32.8438,350.3906 C32.8438,349.9375 32.4531,349.5469 31.9844,349.5469 C31.7656,349.5469 31.5625,349.625 31.375,349.8125 C30.9219,350.2969 30.9219,350.2969 30.7344,350.3906 C30.3125,350.6563 29.625,350.7813 28.8594,350.7813 C26.8125,350.7813 25.5156,349.6875 25.5156,347.9844 L25.5156,346.8906 C25.5156,345.1094 26.7656,343.7969 28.5,343.7969 C29.0781,343.7969 29.6875,343.9531 30.1563,344.2031 C30.6406,344.4844 30.8125,344.7031 30.9063,345.1094 C30.9688,345.5156 31,345.6406 31.1406,345.7656 C31.2813,345.9063 31.5156,346.0156 31.7344,346.0156 C32,346.0156 32.2656,345.875 32.4375,345.6563 C32.5469,345.5 32.5781,345.3125 32.5781,344.8906 L32.5781,343.4688 C32.5781,343.0313 32.5625,342.9063 32.4688,342.75 C32.3125,342.4844 32.0313,342.3438 31.7344,342.3438 C31.4375,342.3438 31.2344,342.4375 31.0156,342.75 L30.8438,342.6719 Z "/><text fill="#000000" font-family="sans-serif" font-size="12" lengthAdjust="spacingAndGlyphs" textLength="27" x="42.5" y="351.1543">Goal</text><line style="stroke: #A80036; stroke-width: 1.5;" x1="14.5" x2="71.5" y1="363" y2="363"/><line style="stroke: #A80036; stroke-width: 1.5;" x1="14.5" x2="71.5" y1="371" y2="371"/><!--MD5=[a4cb0f987c11031dc931233a0e7767af]
class Stock--><rect fill="#FEFECE" filter="url(#ffc4je7mynecb)" height="48" id="Stock" style="stroke: #A80036; stroke-width: 1.5;" width="66" x="583" y="223"/><ellipse cx="598" cy="239" fill="#ADD1B2" rx="11" ry="11" style="stroke: #A80036; stroke-width: 1.0;"/><path d="M600.3438,234.6719 C599.4063,234.2344 598.8125,234.0938 597.9375,234.0938 C595.3125,234.0938 593.3125,236.1719 593.3125,238.8906 L593.3125,240.0156 C593.3125,242.5938 595.4219,244.4844 598.3125,244.4844 C599.5313,244.4844 600.6875,244.1875 601.4375,243.6406 C602.0156,243.2344 602.3438,242.7813 602.3438,242.3906 C602.3438,241.9375 601.9531,241.5469 601.4844,241.5469 C601.2656,241.5469 601.0625,241.625 600.875,241.8125 C600.4219,242.2969 600.4219,242.2969 600.2344,242.3906 C599.8125,242.6563 599.125,242.7813 598.3594,242.7813 C596.3125,242.7813 595.0156,241.6875 595.0156,239.9844 L595.0156,238.8906 C595.0156,237.1094 596.2656,235.7969 598,235.7969 C598.5781,235.7969 599.1875,235.9531 599.6563,236.2031 C600.1406,236.4844 600.3125,236.7031 600.4063,237.1094 C600.4688,237.5156 600.5,237.6406 600.6406,237.7656 C600.7813,237.9063 601.0156,238.0156 601.2344,238.0156 C601.5,238.0156 601.7656,237.875 601.9375,237.6563 C602.0469,237.5 602.0781,237.3125 602.0781,236.8906 L602.0781,235.4688 C602.0781,235.0313 602.0625,234.9063 601.9688,234.75 C601.8125,234.4844 601.5313,234.3438 601.2344,234.3438 C600.9375,234.3438 600.7344,234.4375 600.5156,234.75 L600.3438,234.6719 Z "/><text fill="#000000" font-family="sans-serif" font-size="12" lengthAdjust="spacingAndGlyphs" textLength="34" x="612" y="243.1543">Stock</text><line style="stroke: #A80036; stroke-width: 1.5;" x1="584" x2="648" y1="255" y2="255"/><line style="stroke: #A80036; stroke-width: 1.5;" x1="584" x2="648" y1="263" y2="263"/><!--MD5=[0335979a550fbd11f2466c06e262e7ca]
class Shield--><rect fill="#FEFECE" filter="url(#ffc4je7mynecb)" height="48" id="Shield" style="stroke: #A80036; stroke-width: 1.5;" width="69" x="692.5" y="223"/><ellipse cx="707.5" cy="239" fill="#ADD1B2" rx="11" ry="11" style="stroke: #A80036; stroke-width: 1.0;"/><path d="M709.8438,234.6719 C708.9063,234.2344 708.3125,234.0938 707.4375,234.0938 C704.8125,234.0938 702.8125,236.1719 702.8125,238.8906 L702.8125,240.0156 C702.8125,242.5938 704.9219,244.4844 707.8125,244.4844 C709.0313,244.4844 710.1875,244.1875 710.9375,243.6406 C711.5156,243.2344 711.8438,242.7813 711.8438,242.3906 C711.8438,241.9375 711.4531,241.5469 710.9844,241.5469 C710.7656,241.5469 710.5625,241.625 710.375,241.8125 C709.9219,242.2969 709.9219,242.2969 709.7344,242.3906 C709.3125,242.6563 708.625,242.7813 707.8594,242.7813 C705.8125,242.7813 704.5156,241.6875 704.5156,239.9844 L704.5156,238.8906 C704.5156,237.1094 705.7656,235.7969 707.5,235.7969 C708.0781,235.7969 708.6875,235.9531 709.1563,236.2031 C709.6406,236.4844 709.8125,236.7031 709.9063,237.1094 C709.9688,237.5156 710,237.6406 710.1406,237.7656 C710.2813,237.9063 710.5156,238.0156 710.7344,238.0156 C711,238.0156 711.2656,237.875 711.4375,237.6563 C711.5469,237.5 711.5781,237.3125 711.5781,236.8906 L711.5781,235.4688 C711.5781,235.0313 711.5625,234.9063 711.4688,234.75 C711.3125,234.4844 711.0313,234.3438 710.7344,234.3438 C710.4375,234.3438 710.2344,234.4375 710.0156,234.75 L709.8438,234.6719 Z "/><text fill="#000000" font-family="sans-serif" font-size="12" lengthAdjust="spacingAndGlyphs" textLength="37" x="721.5" y="243.1543">Shield</text><line style="stroke: #A80036; stroke-width: 1.5;" x1="693.5" x2="760.5" y1="255" y2="255"/><line style="stroke: #A80036; stroke-width: 1.5;" x1="693.5" x2="760.5" y1="263" y2="263"/><!--MD5=[8dce5be27b88f5328a055380ca382252]
class Ranking--><rect fill="#FEFECE" filter="url(#ffc4je7mynecb)" height="48" id="Ranking" style="stroke: #A80036; stroke-width: 1.5;" width="78" x="809" y="223"/><ellipse cx="824" cy="239" fill="#ADD1B2" rx="11" ry="11" style="stroke: #A80036; stroke-width: 1.0;"/><path d="M826.3438,234.6719 C825.4063,234.2344 824.8125,234.0938 823.9375,234.0938 C821.3125,234.0938 819.3125,236.1719 819.3125,238.8906 L819.3125,240.0156 C819.3125,242.5938 821.4219,244.4844 824.3125,244.4844 C825.5313,244.4844 826.6875,244.1875 827.4375,243.6406 C828.0156,243.2344 828.3438,242.7813 828.3438,242.3906 C828.3438,241.9375 827.9531,241.5469 827.4844,241.5469 C827.2656,241.5469 827.0625,241.625 826.875,241.8125 C826.4219,242.2969 826.4219,242.2969 826.2344,242.3906 C825.8125,242.6563 825.125,242.7813 824.3594,242.7813 C822.3125,242.7813 821.0156,241.6875 821.0156,239.9844 L821.0156,238.8906 C821.0156,237.1094 822.2656,235.7969 824,235.7969 C824.5781,235.7969 825.1875,235.9531 825.6563,236.2031 C826.1406,236.4844 826.3125,236.7031 826.4063,237.1094 C826.4688,237.5156 826.5,237.6406 826.6406,237.7656 C826.7813,237.9063 827.0156,238.0156 827.2344,238.0156 C827.5,238.0156 827.7656,237.875 827.9375,237.6563 C828.0469,237.5 828.0781,237.3125 828.0781,236.8906 L828.0781,235.4688 C828.0781,235.0313 828.0625,234.9063 827.9688,234.75 C827.8125,234.4844 827.5313,234.3438 827.2344,234.3438 C826.9375,234.3438 826.7344,234.4375 826.5156,234.75 L826.3438,234.6719 Z "/><text fill="#000000" font-family="sans-serif" font-size="12" lengthAdjust="spacingAndGlyphs" textLength="46" x="838" y="243.1543">Ranking</text><line style="stroke: #A80036; stroke-width: 1.5;" x1="810" x2="886" y1="255" y2="255"/><line style="stroke: #A80036; stroke-width: 1.5;" x1="810" x2="886" y1="263" y2="263"/><!--MD5=[511f332b135bf54771edaeeaf366248f]
class Players--><rect fill="#FEFECE" filter="url(#ffc4je7mynecb)" height="48" id="Players" style="stroke: #A80036; stroke-width: 1.5;" width="75" x="818.5" y="331"/><ellipse cx="833.5" cy="347" fill="#ADD1B2" rx="11" ry="11" style="stroke: #A80036; stroke-width: 1.0;"/><path d="M835.8438,342.6719 C834.9063,342.2344 834.3125,342.0938 833.4375,342.0938 C830.8125,342.0938 828.8125,344.1719 828.8125,346.8906 L828.8125,348.0156 C828.8125,350.5938 830.9219,352.4844 833.8125,352.4844 C835.0313,352.4844 836.1875,352.1875 836.9375,351.6406 C837.5156,351.2344 837.8438,350.7813 837.8438,350.3906 C837.8438,349.9375 837.4531,349.5469 836.9844,349.5469 C836.7656,349.5469 836.5625,349.625 836.375,349.8125 C835.9219,350.2969 835.9219,350.2969 835.7344,350.3906 C835.3125,350.6563 834.625,350.7813 833.8594,350.7813 C831.8125,350.7813 830.5156,349.6875 830.5156,347.9844 L830.5156,346.8906 C830.5156,345.1094 831.7656,343.7969 833.5,343.7969 C834.0781,343.7969 834.6875,343.9531 835.1563,344.2031 C835.6406,344.4844 835.8125,344.7031 835.9063,345.1094 C835.9688,345.5156 836,345.6406 836.1406,345.7656 C836.2813,345.9063 836.5156,346.0156 836.7344,346.0156 C837,346.0156 837.2656,345.875 837.4375,345.6563 C837.5469,345.5 837.5781,345.3125 837.5781,344.8906 L837.5781,343.4688 C837.5781,343.0313 837.5625,342.9063 837.4688,342.75 C837.3125,342.4844 837.0313,342.3438 836.7344,342.3438 C836.4375,342.3438 836.2344,342.4375 836.0156,342.75 L835.8438,342.6719 Z "/><text fill="#000000" font-family="sans-serif" font-size="12" lengthAdjust="spacingAndGlyphs" textLength="43" x="847.5" y="351.1543">Players</text><line style="stroke: #A80036; stroke-width: 1.5;" x1="819.5" x2="892.5" y1="363" y2="363"/><line style="stroke: #A80036; stroke-width: 1.5;" x1="819.5" x2="892.5" y1="371" y2="371"/><!--MD5=[f61cd60923250dc151bbd3a2055c850f]
class Hole--><rect fill="#FEFECE" filter="url(#ffc4je7mynecb)" height="48" id="Hole" style="stroke: #A80036; stroke-width: 1.5;" width="60" x="417" y="223"/><ellipse cx="432" cy="239" fill="#ADD1B2" rx="11" ry="11" style="stroke: #A80036; stroke-width: 1.0;"/><path d="M434.3438,234.6719 C433.4063,234.2344 432.8125,234.0938 431.9375,234.0938 C429.3125,234.0938 427.3125,236.1719 427.3125,238.8906 L427.3125,240.0156 C427.3125,242.5938 429.4219,244.4844 432.3125,244.4844 C433.5313,244.4844 434.6875,244.1875 435.4375,243.6406 C436.0156,243.2344 436.3438,242.7813 436.3438,242.3906 C436.3438,241.9375 435.9531,241.5469 435.4844,241.5469 C435.2656,241.5469 435.0625,241.625 434.875,241.8125 C434.4219,242.2969 434.4219,242.2969 434.2344,242.3906 C433.8125,242.6563 433.125,242.7813 432.3594,242.7813 C430.3125,242.7813 429.0156,241.6875 429.0156,239.9844 L429.0156,238.8906 C429.0156,237.1094 430.2656,235.7969 432,235.7969 C432.5781,235.7969 433.1875,235.9531 433.6563,236.2031 C434.1406,236.4844 434.3125,236.7031 434.4063,237.1094 C434.4688,237.5156 434.5,237.6406 434.6406,237.7656 C434.7813,237.9063 435.0156,238.0156 435.2344,238.0156 C435.5,238.0156 435.7656,237.875 435.9375,237.6563 C436.0469,237.5 436.0781,237.3125 436.0781,236.8906 L436.0781,235.4688 C436.0781,235.0313 436.0625,234.9063 435.9688,234.75 C435.8125,234.4844 435.5313,234.3438 435.2344,234.3438 C434.9375,234.3438 434.7344,234.4375 434.5156,234.75 L434.3438,234.6719 Z "/><text fill="#000000" font-family="sans-serif" font-size="12" lengthAdjust="spacingAndGlyphs" textLength="28" x="446" y="243.1543">Hole</text><line style="stroke: #A80036; stroke-width: 1.5;" x1="418" x2="476" y1="255" y2="255"/><line style="stroke: #A80036; stroke-width: 1.5;" x1="418" x2="476" y1="263" y2="263"/><!--MD5=[70822a1ea67de86dba82ab9853e4a681]
class HoleTypeA--><rect fill="#FEFECE" filter="url(#ffc4je7mynecb)" height="48" id="HoleTypeA" style="stroke: #A80036; stroke-width: 1.5;" width="98" x="181" y="331"/><ellipse cx="196" cy="347" fill="#ADD1B2" rx="11" ry="11" style="stroke: #A80036; stroke-width: 1.0;"/><path d="M198.3438,342.6719 C197.4063,342.2344 196.8125,342.0938 195.9375,342.0938 C193.3125,342.0938 191.3125,344.1719 191.3125,346.8906 L191.3125,348.0156 C191.3125,350.5938 193.4219,352.4844 196.3125,352.4844 C197.5313,352.4844 198.6875,352.1875 199.4375,351.6406 C200.0156,351.2344 200.3438,350.7813 200.3438,350.3906 C200.3438,349.9375 199.9531,349.5469 199.4844,349.5469 C199.2656,349.5469 199.0625,349.625 198.875,349.8125 C198.4219,350.2969 198.4219,350.2969 198.2344,350.3906 C197.8125,350.6563 197.125,350.7813 196.3594,350.7813 C194.3125,350.7813 193.0156,349.6875 193.0156,347.9844 L193.0156,346.8906 C193.0156,345.1094 194.2656,343.7969 196,343.7969 C196.5781,343.7969 197.1875,343.9531 197.6563,344.2031 C198.1406,344.4844 198.3125,344.7031 198.4063,345.1094 C198.4688,345.5156 198.5,345.6406 198.6406,345.7656 C198.7813,345.9063 199.0156,346.0156 199.2344,346.0156 C199.5,346.0156 199.7656,345.875 199.9375,345.6563 C200.0469,345.5 200.0781,345.3125 200.0781,344.8906 L200.0781,343.4688 C200.0781,343.0313 200.0625,342.9063 199.9688,342.75 C199.8125,342.4844 199.5313,342.3438 199.2344,342.3438 C198.9375,342.3438 198.7344,342.4375 198.5156,342.75 L198.3438,342.6719 Z "/><text fill="#000000" font-family="sans-serif" font-size="12" lengthAdjust="spacingAndGlyphs" textLength="66" x="210" y="351.1543">HoleTypeA</text><line style="stroke: #A80036; stroke-width: 1.5;" x1="182" x2="278" y1="363" y2="363"/><line style="stroke: #A80036; stroke-width: 1.5;" x1="182" x2="278" y1="371" y2="371"/><!--MD5=[e20275b91efe34978e8017f83934a8e4]
class HoleTypeB--><rect fill="#FEFECE" filter="url(#ffc4je7mynecb)" height="48" id="HoleTypeB" style="stroke: #A80036; stroke-width: 1.5;" width="98" x="314" y="331"/><ellipse cx="329" cy="347" fill="#ADD1B2" rx="11" ry="11" style="stroke: #A80036; stroke-width: 1.0;"/><path d="M331.3438,342.6719 C330.4063,342.2344 329.8125,342.0938 328.9375,342.0938 C326.3125,342.0938 324.3125,344.1719 324.3125,346.8906 L324.3125,348.0156 C324.3125,350.5938 326.4219,352.4844 329.3125,352.4844 C330.5313,352.4844 331.6875,352.1875 332.4375,351.6406 C333.0156,351.2344 333.3438,350.7813 333.3438,350.3906 C333.3438,349.9375 332.9531,349.5469 332.4844,349.5469 C332.2656,349.5469 332.0625,349.625 331.875,349.8125 C331.4219,350.2969 331.4219,350.2969 331.2344,350.3906 C330.8125,350.6563 330.125,350.7813 329.3594,350.7813 C327.3125,350.7813 326.0156,349.6875 326.0156,347.9844 L326.0156,346.8906 C326.0156,345.1094 327.2656,343.7969 329,343.7969 C329.5781,343.7969 330.1875,343.9531 330.6563,344.2031 C331.1406,344.4844 331.3125,344.7031 331.4063,345.1094 C331.4688,345.5156 331.5,345.6406 331.6406,345.7656 C331.7813,345.9063 332.0156,346.0156 332.2344,346.0156 C332.5,346.0156 332.7656,345.875 332.9375,345.6563 C333.0469,345.5 333.0781,345.3125 333.0781,344.8906 L333.0781,343.4688 C333.0781,343.0313 333.0625,342.9063 332.9688,342.75 C332.8125,342.4844 332.5313,342.3438 332.2344,342.3438 C331.9375,342.3438 331.7344,342.4375 331.5156,342.75 L331.3438,342.6719 Z "/><text fill="#000000" font-family="sans-serif" font-size="12" lengthAdjust="spacingAndGlyphs" textLength="66" x="343" y="351.1543">HoleTypeB</text><line style="stroke: #A80036; stroke-width: 1.5;" x1="315" x2="411" y1="363" y2="363"/><line style="stroke: #A80036; stroke-width: 1.5;" x1="315" x2="411" y1="371" y2="371"/><!--MD5=[e05bacf3ff4416a0580578814d41bbf6]
class Piece--><rect fill="#FEFECE" filter="url(#ffc4je7mynecb)" height="48" id="Piece" style="stroke: #A80036; stroke-width: 1.5;" width="64" x="580" y="331"/><ellipse cx="595" cy="347" fill="#ADD1B2" rx="11" ry="11" style="stroke: #A80036; stroke-width: 1.0;"/><path d="M597.3438,342.6719 C596.4063,342.2344 595.8125,342.0938 594.9375,342.0938 C592.3125,342.0938 590.3125,344.1719 590.3125,346.8906 L590.3125,348.0156 C590.3125,350.5938 592.4219,352.4844 595.3125,352.4844 C596.5313,352.4844 597.6875,352.1875 598.4375,351.6406 C599.0156,351.2344 599.3438,350.7813 599.3438,350.3906 C599.3438,349.9375 598.9531,349.5469 598.4844,349.5469 C598.2656,349.5469 598.0625,349.625 597.875,349.8125 C597.4219,350.2969 597.4219,350.2969 597.2344,350.3906 C596.8125,350.6563 596.125,350.7813 595.3594,350.7813 C593.3125,350.7813 592.0156,349.6875 592.0156,347.9844 L592.0156,346.8906 C592.0156,345.1094 593.2656,343.7969 595,343.7969 C595.5781,343.7969 596.1875,343.9531 596.6563,344.2031 C597.1406,344.4844 597.3125,344.7031 597.4063,345.1094 C597.4688,345.5156 597.5,345.6406 597.6406,345.7656 C597.7813,345.9063 598.0156,346.0156 598.2344,346.0156 C598.5,346.0156 598.7656,345.875 598.9375,345.6563 C599.0469,345.5 599.0781,345.3125 599.0781,344.8906 L599.0781,343.4688 C599.0781,343.0313 599.0625,342.9063 598.9688,342.75 C598.8125,342.4844 598.5313,342.3438 598.2344,342.3438 C597.9375,342.3438 597.7344,342.4375 597.5156,342.75 L597.3438,342.6719 Z "/><text fill="#000000" font-family="sans-serif" font-size="12" lengthAdjust="spacingAndGlyphs" textLength="32" x="609" y="351.1543">Piece</text><line style="stroke: #A80036; stroke-width: 1.5;" x1="581" x2="643" y1="363" y2="363"/><line style="stroke: #A80036; stroke-width: 1.5;" x1="581" x2="643" y1="371" y2="371"/><!--MD5=[8c7d7abc12e214c3cc12c9ab70edee11]
class Coordinate--><rect fill="#FEFECE" filter="url(#ffc4je7mynecb)" height="48" id="Coordinate" style="stroke: #A80036; stroke-width: 1.5;" width="98" x="447" y="331"/><ellipse cx="462" cy="347" fill="#ADD1B2" rx="11" ry="11" style="stroke: #A80036; stroke-width: 1.0;"/><path d="M464.3438,342.6719 C463.4063,342.2344 462.8125,342.0938 461.9375,342.0938 C459.3125,342.0938 457.3125,344.1719 457.3125,346.8906 L457.3125,348.0156 C457.3125,350.5938 459.4219,352.4844 462.3125,352.4844 C463.5313,352.4844 464.6875,352.1875 465.4375,351.6406 C466.0156,351.2344 466.3438,350.7813 466.3438,350.3906 C466.3438,349.9375 465.9531,349.5469 465.4844,349.5469 C465.2656,349.5469 465.0625,349.625 464.875,349.8125 C464.4219,350.2969 464.4219,350.2969 464.2344,350.3906 C463.8125,350.6563 463.125,350.7813 462.3594,350.7813 C460.3125,350.7813 459.0156,349.6875 459.0156,347.9844 L459.0156,346.8906 C459.0156,345.1094 460.2656,343.7969 462,343.7969 C462.5781,343.7969 463.1875,343.9531 463.6563,344.2031 C464.1406,344.4844 464.3125,344.7031 464.4063,345.1094 C464.4688,345.5156 464.5,345.6406 464.6406,345.7656 C464.7813,345.9063 465.0156,346.0156 465.2344,346.0156 C465.5,346.0156 465.7656,345.875 465.9375,345.6563 C466.0469,345.5 466.0781,345.3125 466.0781,344.8906 L466.0781,343.4688 C466.0781,343.0313 466.0625,342.9063 465.9688,342.75 C465.8125,342.4844 465.5313,342.3438 465.2344,342.3438 C464.9375,342.3438 464.7344,342.4375 464.5156,342.75 L464.3438,342.6719 Z "/><text fill="#000000" font-family="sans-serif" font-size="12" lengthAdjust="spacingAndGlyphs" textLength="66" x="476" y="351.1543">Coordinate</text><line style="stroke: #A80036; stroke-width: 1.5;" x1="448" x2="544" y1="363" y2="363"/><line style="stroke: #A80036; stroke-width: 1.5;" x1="448" x2="544" y1="371" y2="371"/><!--MD5=[adaa3654325cb0877e02ae004417f851]
class SecretCode--><rect fill="#FEFECE" filter="url(#ffc4je7mynecb)" height="48" id="SecretCode" style="stroke: #A80036; stroke-width: 1.5;" width="104" x="679" y="331"/><ellipse cx="694" cy="347" fill="#ADD1B2" rx="11" ry="11" style="stroke: #A80036; stroke-width: 1.0;"/><path d="M696.3438,342.6719 C695.4063,342.2344 694.8125,342.0938 693.9375,342.0938 C691.3125,342.0938 689.3125,344.1719 689.3125,346.8906 L689.3125,348.0156 C689.3125,350.5938 691.4219,352.4844 694.3125,352.4844 C695.5313,352.4844 696.6875,352.1875 697.4375,351.6406 C698.0156,351.2344 698.3438,350.7813 698.3438,350.3906 C698.3438,349.9375 697.9531,349.5469 697.4844,349.5469 C697.2656,349.5469 697.0625,349.625 696.875,349.8125 C696.4219,350.2969 696.4219,350.2969 696.2344,350.3906 C695.8125,350.6563 695.125,350.7813 694.3594,350.7813 C692.3125,350.7813 691.0156,349.6875 691.0156,347.9844 L691.0156,346.8906 C691.0156,345.1094 692.2656,343.7969 694,343.7969 C694.5781,343.7969 695.1875,343.9531 695.6563,344.2031 C696.1406,344.4844 696.3125,344.7031 696.4063,345.1094 C696.4688,345.5156 696.5,345.6406 696.6406,345.7656 C696.7813,345.9063 697.0156,346.0156 697.2344,346.0156 C697.5,346.0156 697.7656,345.875 697.9375,345.6563 C698.0469,345.5 698.0781,345.3125 698.0781,344.8906 L698.0781,343.4688 C698.0781,343.0313 698.0625,342.9063 697.9688,342.75 C697.8125,342.4844 697.5313,342.3438 697.2344,342.3438 C696.9375,342.3438 696.7344,342.4375 696.5156,342.75 L696.3438,342.6719 Z "/><text fill="#000000" font-family="sans-serif" font-size="12" lengthAdjust="spacingAndGlyphs" textLength="72" x="708" y="351.1543">SecretCode</text><line style="stroke: #A80036; stroke-width: 1.5;" x1="680" x2="782" y1="363" y2="363"/><line style="stroke: #A80036; stroke-width: 1.5;" x1="680" x2="782" y1="371" y2="371"/><!--MD5=[18eee71c88ab61f27581b8cbdd3ef5ee]
class Color--><rect fill="#FEFECE" filter="url(#ffc4je7mynecb)" height="48" id="Color" style="stroke: #A80036; stroke-width: 1.5;" width="64" x="393" y="439"/><ellipse cx="408" cy="455" fill="#ADD1B2" rx="11" ry="11" style="stroke: #A80036; stroke-width: 1.0;"/><path d="M410.3438,450.6719 C409.4063,450.2344 408.8125,450.0938 407.9375,450.0938 C405.3125,450.0938 403.3125,452.1719 403.3125,454.8906 L403.3125,456.0156 C403.3125,458.5938 405.4219,460.4844 408.3125,460.4844 C409.5313,460.4844 410.6875,460.1875 411.4375,459.6406 C412.0156,459.2344 412.3438,458.7813 412.3438,458.3906 C412.3438,457.9375 411.9531,457.5469 411.4844,457.5469 C411.2656,457.5469 411.0625,457.625 410.875,457.8125 C410.4219,458.2969 410.4219,458.2969 410.2344,458.3906 C409.8125,458.6563 409.125,458.7813 408.3594,458.7813 C406.3125,458.7813 405.0156,457.6875 405.0156,455.9844 L405.0156,454.8906 C405.0156,453.1094 406.2656,451.7969 408,451.7969 C408.5781,451.7969 409.1875,451.9531 409.6563,452.2031 C410.1406,452.4844 410.3125,452.7031 410.4063,453.1094 C410.4688,453.5156 410.5,453.6406 410.6406,453.7656 C410.7813,453.9063 411.0156,454.0156 411.2344,454.0156 C411.5,454.0156 411.7656,453.875 411.9375,453.6563 C412.0469,453.5 412.0781,453.3125 412.0781,452.8906 L412.0781,451.4688 C412.0781,451.0313 412.0625,450.9063 411.9688,450.75 C411.8125,450.4844 411.5313,450.3438 411.2344,450.3438 C410.9375,450.3438 410.7344,450.4375 410.5156,450.75 L410.3438,450.6719 Z "/><text fill="#000000" font-family="sans-serif" font-size="12" lengthAdjust="spacingAndGlyphs" textLength="32" x="422" y="459.1543">Color</text><line style="stroke: #A80036; stroke-width: 1.5;" x1="394" x2="456" y1="471" y2="471"/><line style="stroke: #A80036; stroke-width: 1.5;" x1="394" x2="456" y1="479" y2="479"/><!--MD5=[a1755c4f6e4d7a700d3a08d497091118]
class PieceTypeA--><rect fill="#FEFECE" filter="url(#ffc4je7mynecb)" height="48" id="PieceTypeA" style="stroke: #A80036; stroke-width: 1.5;" width="102" x="492" y="439"/><ellipse cx="507" cy="455" fill="#ADD1B2" rx="11" ry="11" style="stroke: #A80036; stroke-width: 1.0;"/><path d="M509.3438,450.6719 C508.4063,450.2344 507.8125,450.0938 506.9375,450.0938 C504.3125,450.0938 502.3125,452.1719 502.3125,454.8906 L502.3125,456.0156 C502.3125,458.5938 504.4219,460.4844 507.3125,460.4844 C508.5313,460.4844 509.6875,460.1875 510.4375,459.6406 C511.0156,459.2344 511.3438,458.7813 511.3438,458.3906 C511.3438,457.9375 510.9531,457.5469 510.4844,457.5469 C510.2656,457.5469 510.0625,457.625 509.875,457.8125 C509.4219,458.2969 509.4219,458.2969 509.2344,458.3906 C508.8125,458.6563 508.125,458.7813 507.3594,458.7813 C505.3125,458.7813 504.0156,457.6875 504.0156,455.9844 L504.0156,454.8906 C504.0156,453.1094 505.2656,451.7969 507,451.7969 C507.5781,451.7969 508.1875,451.9531 508.6563,452.2031 C509.1406,452.4844 509.3125,452.7031 509.4063,453.1094 C509.4688,453.5156 509.5,453.6406 509.6406,453.7656 C509.7813,453.9063 510.0156,454.0156 510.2344,454.0156 C510.5,454.0156 510.7656,453.875 510.9375,453.6563 C511.0469,453.5 511.0781,453.3125 511.0781,452.8906 L511.0781,451.4688 C511.0781,451.0313 511.0625,450.9063 510.9688,450.75 C510.8125,450.4844 510.5313,450.3438 510.2344,450.3438 C509.9375,450.3438 509.7344,450.4375 509.5156,450.75 L509.3438,450.6719 Z "/><text fill="#000000" font-family="sans-serif" font-size="12" lengthAdjust="spacingAndGlyphs" textLength="70" x="521" y="459.1543">PieceTypeA</text><line style="stroke: #A80036; stroke-width: 1.5;" x1="493" x2="593" y1="471" y2="471"/><line style="stroke: #A80036; stroke-width: 1.5;" x1="493" x2="593" y1="479" y2="479"/><!--MD5=[f393a72ffcf21e7d86e56d45588e040f]
class PieceTypeB--><rect fill="#FEFECE" filter="url(#ffc4je7mynecb)" height="48" id="PieceTypeB" style="stroke: #A80036; stroke-width: 1.5;" width="102" x="629" y="439"/><ellipse cx="644" cy="455" fill="#ADD1B2" rx="11" ry="11" style="stroke: #A80036; stroke-width: 1.0;"/><path d="M646.3438,450.6719 C645.4063,450.2344 644.8125,450.0938 643.9375,450.0938 C641.3125,450.0938 639.3125,452.1719 639.3125,454.8906 L639.3125,456.0156 C639.3125,458.5938 641.4219,460.4844 644.3125,460.4844 C645.5313,460.4844 646.6875,460.1875 647.4375,459.6406 C648.0156,459.2344 648.3438,458.7813 648.3438,458.3906 C648.3438,457.9375 647.9531,457.5469 647.4844,457.5469 C647.2656,457.5469 647.0625,457.625 646.875,457.8125 C646.4219,458.2969 646.4219,458.2969 646.2344,458.3906 C645.8125,458.6563 645.125,458.7813 644.3594,458.7813 C642.3125,458.7813 641.0156,457.6875 641.0156,455.9844 L641.0156,454.8906 C641.0156,453.1094 642.2656,451.7969 644,451.7969 C644.5781,451.7969 645.1875,451.9531 645.6563,452.2031 C646.1406,452.4844 646.3125,452.7031 646.4063,453.1094 C646.4688,453.5156 646.5,453.6406 646.6406,453.7656 C646.7813,453.9063 647.0156,454.0156 647.2344,454.0156 C647.5,454.0156 647.7656,453.875 647.9375,453.6563 C648.0469,453.5 648.0781,453.3125 648.0781,452.8906 L648.0781,451.4688 C648.0781,451.0313 648.0625,450.9063 647.9688,450.75 C647.8125,450.4844 647.5313,450.3438 647.2344,450.3438 C646.9375,450.3438 646.7344,450.4375 646.5156,450.75 L646.3438,450.6719 Z "/><text fill="#000000" font-family="sans-serif" font-size="12" lengthAdjust="spacingAndGlyphs" textLength="70" x="658" y="459.1543">PieceTypeB</text><line style="stroke: #A80036; stroke-width: 1.5;" x1="630" x2="730" y1="471" y2="471"/><line style="stroke: #A80036; stroke-width: 1.5;" x1="630" x2="730" y1="479" y2="479"/><!--MD5=[493dbe1cd4d48c83f5d2cdfdad01430b]
class PieceTypeC--><rect fill="#FEFECE" filter="url(#ffc4je7mynecb)" height="48" id="PieceTypeC" style="stroke: #A80036; stroke-width: 1.5;" width="102" x="766" y="439"/><ellipse cx="781" cy="455" fill="#ADD1B2" rx="11" ry="11" style="stroke: #A80036; stroke-width: 1.0;"/><path d="M783.3438,450.6719 C782.4063,450.2344 781.8125,450.0938 780.9375,450.0938 C778.3125,450.0938 776.3125,452.1719 776.3125,454.8906 L776.3125,456.0156 C776.3125,458.5938 778.4219,460.4844 781.3125,460.4844 C782.5313,460.4844 783.6875,460.1875 784.4375,459.6406 C785.0156,459.2344 785.3438,458.7813 785.3438,458.3906 C785.3438,457.9375 784.9531,457.5469 784.4844,457.5469 C784.2656,457.5469 784.0625,457.625 783.875,457.8125 C783.4219,458.2969 783.4219,458.2969 783.2344,458.3906 C782.8125,458.6563 782.125,458.7813 781.3594,458.7813 C779.3125,458.7813 778.0156,457.6875 778.0156,455.9844 L778.0156,454.8906 C778.0156,453.1094 779.2656,451.7969 781,451.7969 C781.5781,451.7969 782.1875,451.9531 782.6563,452.2031 C783.1406,452.4844 783.3125,452.7031 783.4063,453.1094 C783.4688,453.5156 783.5,453.6406 783.6406,453.7656 C783.7813,453.9063 784.0156,454.0156 784.2344,454.0156 C784.5,454.0156 784.7656,453.875 784.9375,453.6563 C785.0469,453.5 785.0781,453.3125 785.0781,452.8906 L785.0781,451.4688 C785.0781,451.0313 785.0625,450.9063 784.9688,450.75 C784.8125,450.4844 784.5313,450.3438 784.2344,450.3438 C783.9375,450.3438 783.7344,450.4375 783.5156,450.75 L783.3438,450.6719 Z "/><text fill="#000000" font-family="sans-serif" font-size="12" lengthAdjust="spacingAndGlyphs" textLength="70" x="795" y="459.1543">PieceTypeC</text><line style="stroke: #A80036; stroke-width: 1.5;" x1="767" x2="867" y1="471" y2="471"/><line style="stroke: #A80036; stroke-width: 1.5;" x1="767" x2="867" y1="479" y2="479"/><!--MD5=[f8e7078f77c005d15b486c0c98deb1e6]
class Action--><rect fill="#FEFECE" filter="url(#ffc4je7mynecb)" height="48" id="Action" style="stroke: #A80036; stroke-width: 1.5;" width="69" x="412.5" y="115"/><ellipse cx="427.5" cy="131" fill="#ADD1B2" rx="11" ry="11" style="stroke: #A80036; stroke-width: 1.0;"/><path d="M429.8438,126.6719 C428.9063,126.2344 428.3125,126.0938 427.4375,126.0938 C424.8125,126.0938 422.8125,128.1719 422.8125,130.8906 L422.8125,132.0156 C422.8125,134.5938 424.9219,136.4844 427.8125,136.4844 C429.0313,136.4844 430.1875,136.1875 430.9375,135.6406 C431.5156,135.2344 431.8438,134.7813 431.8438,134.3906 C431.8438,133.9375 431.4531,133.5469 430.9844,133.5469 C430.7656,133.5469 430.5625,133.625 430.375,133.8125 C429.9219,134.2969 429.9219,134.2969 429.7344,134.3906 C429.3125,134.6563 428.625,134.7813 427.8594,134.7813 C425.8125,134.7813 424.5156,133.6875 424.5156,131.9844 L424.5156,130.8906 C424.5156,129.1094 425.7656,127.7969 427.5,127.7969 C428.0781,127.7969 428.6875,127.9531 429.1563,128.2031 C429.6406,128.4844 429.8125,128.7031 429.9063,129.1094 C429.9688,129.5156 430,129.6406 430.1406,129.7656 C430.2813,129.9063 430.5156,130.0156 430.7344,130.0156 C431,130.0156 431.2656,129.875 431.4375,129.6563 C431.5469,129.5 431.5781,129.3125 431.5781,128.8906 L431.5781,127.4688 C431.5781,127.0313 431.5625,126.9063 431.4688,126.75 C431.3125,126.4844 431.0313,126.3438 430.7344,126.3438 C430.4375,126.3438 430.2344,126.4375 430.0156,126.75 L429.8438,126.6719 Z "/><text fill="#000000" font-family="sans-serif" font-size="12" lengthAdjust="spacingAndGlyphs" textLength="37" x="441.5" y="135.1543">Action</text><line style="stroke: #A80036; stroke-width: 1.5;" x1="413.5" x2="480.5" y1="147" y2="147"/><line style="stroke: #A80036; stroke-width: 1.5;" x1="413.5" x2="480.5" y1="155" y2="155"/><!--MD5=[852878fd701cdbe445b24ff36590dddf]
class PutAction--><rect fill="#FEFECE" filter="url(#ffc4je7mynecb)" height="48" id="PutAction" style="stroke: #A80036; stroke-width: 1.5;" width="86" x="43" y="439"/><ellipse cx="58" cy="455" fill="#ADD1B2" rx="11" ry="11" style="stroke: #A80036; stroke-width: 1.0;"/><path d="M60.3438,450.6719 C59.4063,450.2344 58.8125,450.0938 57.9375,450.0938 C55.3125,450.0938 53.3125,452.1719 53.3125,454.8906 L53.3125,456.0156 C53.3125,458.5938 55.4219,460.4844 58.3125,460.4844 C59.5313,460.4844 60.6875,460.1875 61.4375,459.6406 C62.0156,459.2344 62.3438,458.7813 62.3438,458.3906 C62.3438,457.9375 61.9531,457.5469 61.4844,457.5469 C61.2656,457.5469 61.0625,457.625 60.875,457.8125 C60.4219,458.2969 60.4219,458.2969 60.2344,458.3906 C59.8125,458.6563 59.125,458.7813 58.3594,458.7813 C56.3125,458.7813 55.0156,457.6875 55.0156,455.9844 L55.0156,454.8906 C55.0156,453.1094 56.2656,451.7969 58,451.7969 C58.5781,451.7969 59.1875,451.9531 59.6563,452.2031 C60.1406,452.4844 60.3125,452.7031 60.4063,453.1094 C60.4688,453.5156 60.5,453.6406 60.6406,453.7656 C60.7813,453.9063 61.0156,454.0156 61.2344,454.0156 C61.5,454.0156 61.7656,453.875 61.9375,453.6563 C62.0469,453.5 62.0781,453.3125 62.0781,452.8906 L62.0781,451.4688 C62.0781,451.0313 62.0625,450.9063 61.9688,450.75 C61.8125,450.4844 61.5313,450.3438 61.2344,450.3438 C60.9375,450.3438 60.7344,450.4375 60.5156,450.75 L60.3438,450.6719 Z "/><text fill="#000000" font-family="sans-serif" font-size="12" lengthAdjust="spacingAndGlyphs" textLength="54" x="72" y="459.1543">PutAction</text><line style="stroke: #A80036; stroke-width: 1.5;" x1="44" x2="128" y1="471" y2="471"/><line style="stroke: #A80036; stroke-width: 1.5;" x1="44" x2="128" y1="479" y2="479"/><!--MD5=[f95f66ed9d6e0f523703ae56e87204e4]
link Mastermind to Turn--><path codeLine="1" d="M123,67 C123,67 123,90.677 123,101.364 " fill="none" id="Mastermind-Turn" style="stroke: #A80036; stroke-width: 1.0;"/><polygon fill="#A80036" points="123,114.678,127,105.678,123,109.678,119,105.678,123,114.678" style="stroke: #A80036; stroke-width: 1.0;"/><line style="stroke: #A80036; stroke-width: 1.0;" x1="123" x2="123" y1="109.678" y2="101.678"/><polygon fill="#A80036" points="123,55,119,61,123,67,127,61,123,55" style="stroke: #A80036; stroke-width: 1.0;"/><!--MD5=[d81713d91ad05be3b975338c4816ee0b]
link Turn to Player--><path codeLine="2" d="M105.2072,163 C92.6145,179.279 75.6666,201.187 62.3451,218.408 " fill="none" id="Turn-to-Player" style="stroke: #A80036; stroke-width: 1.0;"/><polygon fill="#A80036" points="59.0412,222.678,67.7113,218.0057,62.1,218.7228,61.3829,213.1116,59.0412,222.678" style="stroke: #A80036; stroke-width: 1.0;"/><text fill="#000000" font-family="sans-serif" font-size="13" lengthAdjust="spacingAndGlyphs" textLength="8" x="54.4637" y="212.0045">2</text><!--MD5=[af4d99cd4784731f062880949247790a]
link Mastermind to Player--><path codeLine="3" d="M101.5172,65.4117 C101.5172,65.4117 82.7573,98.475 76,115 C63.3292,145.987 53.9352,182.972 48.0875,209.73 " fill="none" id="Mastermind-Player" style="stroke: #A80036; stroke-width: 1.0;"/><polygon fill="#A80036" points="45.3542,222.703,51.1237,214.7209,46.385,217.8104,43.2955,213.0717,45.3542,222.703" style="stroke: #A80036; stroke-width: 1.0;"/><line style="stroke: #A80036; stroke-width: 1.0;" x1="46.385" x2="48.0343" y1="217.8104" y2="209.983"/><polygon fill="#A80036" points="107.761,55.164,101.2232,58.2066,101.5172,65.4117,108.055,62.3691,107.761,55.164" style="stroke: #A80036; stroke-width: 1.0;"/><text fill="#000000" font-family="sans-serif" font-size="13" lengthAdjust="spacingAndGlyphs" textLength="8" x="37.4405" y="212.0356">2</text><!--MD5=[ba28573f2062cf9f5d1d4aa517f0cc38]
link Mastermind to Board--><path codeLine="4" d="M186.0961,45.5653 C186.0961,45.5653 480.274,108.818 568.999,127.894 " fill="none" id="Mastermind-Board" style="stroke: #A80036; stroke-width: 1.0;"/><polygon fill="#A80036" points="581.818,130.651,573.8601,124.8483,576.9297,129.5998,572.1782,132.6695,581.818,130.651" style="stroke: #A80036; stroke-width: 1.0;"/><line style="stroke: #A80036; stroke-width: 1.0;" x1="576.9297" x2="569.1085" y1="129.5998" y2="127.918"/><polygon fill="#A80036" points="174.364,43.044,179.3896,48.2154,186.0961,45.5653,181.0705,40.3939,174.364,43.044" style="stroke: #A80036; stroke-width: 1.0;"/><text fill="#000000" font-family="sans-serif" font-size="13" lengthAdjust="spacingAndGlyphs" textLength="8" x="565.943" y="124.4627">1</text><!--MD5=[1571e4e0b7cdbae74b04c97a95677c54]
link Player to Goal--><path codeLine="6" d="M41.6608,282.9979 C41.6608,282.9979 42.1071,306.677 42.3088,317.364 " fill="none" id="Player-Goal" style="stroke: #A80036; stroke-width: 1.0;"/><polygon fill="#A80036" points="42.56,330.678,46.3892,321.604,42.4655,325.6789,38.3906,321.7552,42.56,330.678" style="stroke: #A80036; stroke-width: 1.0;"/><line style="stroke: #A80036; stroke-width: 1.0;" x1="42.4655" x2="42.3146" y1="325.6789" y2="317.681"/><polygon fill="#FFFFFF" points="41.434,271,37.5481,277.0745,41.6608,282.9979,45.5467,276.9233,41.434,271" style="stroke: #A80036; stroke-width: 1.0;"/><!--MD5=[e7ad52f8aa9c8c5af0184c4bac3d5607]
link Board to Stock--><path codeLine="7" d="M616,175 C616,175 616,198.677 616,209.364 " fill="none" id="Board-Stock" style="stroke: #A80036; stroke-width: 1.0;"/><polygon fill="#A80036" points="616,222.678,620,213.678,616,217.678,612,213.678,616,222.678" style="stroke: #A80036; stroke-width: 1.0;"/><line style="stroke: #A80036; stroke-width: 1.0;" x1="616" x2="616" y1="217.678" y2="209.678"/><polygon fill="#A80036" points="616,163,612,169,616,175,620,169,616,163" style="stroke: #A80036; stroke-width: 1.0;"/><text fill="#000000" font-family="sans-serif" font-size="13" lengthAdjust="spacingAndGlyphs" textLength="8" x="607.025" y="212.0045">2</text><!--MD5=[f3f19226c452a164f5be91e43014f438]
link Board to Shield--><path codeLine="8" d="M648.7639,171.2872 C648.7639,171.2872 679.24,200.391 692.992,213.524 " fill="none" id="Board-Shield" style="stroke: #A80036; stroke-width: 1.0;"/><polygon fill="#A80036" points="702.578,222.678,698.832,213.5694,698.9621,219.2247,693.3067,219.3548,702.578,222.678" style="stroke: #A80036; stroke-width: 1.0;"/><line style="stroke: #A80036; stroke-width: 1.0;" x1="698.9621" x2="693.1765" y1="219.2247" y2="213.7005"/><polygon fill="#A80036" points="640.085,163,641.662,170.0365,648.7639,171.2872,647.1868,164.2506,640.085,163" style="stroke: #A80036; stroke-width: 1.0;"/><text fill="#000000" font-family="sans-serif" font-size="13" lengthAdjust="spacingAndGlyphs" textLength="8" x="687.6501" y="212.0045">1</text><!--MD5=[3f182fc2750ebaef6210c508008c3a08]
link Board to Ranking--><path codeLine="9" d="M661.1466,160.6282 C661.1466,160.6282 756.837,204.348 797.028,222.711 " fill="none" id="Board-Ranking" style="stroke: #A80036; stroke-width: 1.0;"/><polygon fill="#A80036" points="808.972,228.168,802.4485,220.7894,804.4243,226.09,799.1237,228.0658,808.972,228.168" style="stroke: #A80036; stroke-width: 1.0;"/><line style="stroke: #A80036; stroke-width: 1.0;" x1="804.4243" x2="797.148" y1="226.09" y2="222.7655"/><polygon fill="#A80036" points="650.232,155.641,654.0269,161.7728,661.1466,160.6282,657.3517,154.4964,650.232,155.641" style="stroke: #A80036; stroke-width: 1.0;"/><text fill="#000000" font-family="sans-serif" font-size="13" lengthAdjust="spacingAndGlyphs" textLength="8" x="793.0387" y="220.3922">1</text><!--MD5=[76c901d476ae4490b1c0a2ed35f97104]
link Ranking to Players--><path codeLine="10" d="M850.6393,282.966 C850.6393,282.966 852.428,306.677 853.235,317.364 " fill="none" id="Ranking-Players" style="stroke: #A80036; stroke-width: 1.0;"/><polygon fill="#A80036" points="854.24,330.678,857.5512,321.4025,853.8637,325.6922,849.5739,322.0046,854.24,330.678" style="stroke: #A80036; stroke-width: 1.0;"/><line style="stroke: #A80036; stroke-width: 1.0;" x1="853.8637" x2="853.2615" y1="325.6922" y2="317.7155"/><polygon fill="#A80036" points="849.736,271,846.199,277.2841,850.6393,282.966,854.1763,276.6819,849.736,271" style="stroke: #A80036; stroke-width: 1.0;"/><text fill="#000000" font-family="sans-serif" font-size="13" lengthAdjust="spacingAndGlyphs" textLength="8" x="844.836" y="320.0045">2</text><!--MD5=[b7e0e602f5dd72f55602aba84f03160d]
link Hole to HoleTypeA--><path codeLine="11" d="M398.756,271.566 C368.396,286.396 328.819,305.729 295.624,321.944 " fill="none" id="Hole-HoleTypeA" style="stroke: #A80036; stroke-width: 1.0;"/><polygon fill="#A80036" points="277.437,330.828,287.2794,330.4716,281.9296,328.6333,283.7679,323.2835,277.437,330.828" style="stroke: #A80036; stroke-width: 1.0;"/><line style="stroke: #A80036; stroke-width: 1.0;" x1="281.9296" x2="295.4075" y1="328.6333" y2="322.0495"/><polygon fill="none" points="395.784,265.227,416.827,262.739,401.929,277.807,395.784,265.227" style="stroke: #A80036; stroke-width: 1.0;"/><text fill="#000000" font-family="sans-serif" font-size="13" lengthAdjust="spacingAndGlyphs" textLength="32" x="253.4927" y="319.796">12x5</text><!--MD5=[6a64e491da660b5d487591d40958a889]
link Hole to HoleTypeB--><path codeLine="12" d="M416.33,286.702 C409.027,295.919 401.229,305.759 393.915,314.989 " fill="none" id="Hole-HoleTypeB" style="stroke: #A80036; stroke-width: 1.0;"/><polygon fill="#A80036" points="381.481,330.678,390.2058,326.1087,384.5865,326.7593,383.9359,321.14,381.481,330.678" style="stroke: #A80036; stroke-width: 1.0;"/><line style="stroke: #A80036; stroke-width: 1.0;" x1="384.5865" x2="393.903" y1="326.7593" y2="315.0035"/><polygon fill="none" points="410.865,282.328,428.773,271,421.838,291.023,410.865,282.328" style="stroke: #A80036; stroke-width: 1.0;"/><text fill="#000000" font-family="sans-serif" font-size="13" lengthAdjust="spacingAndGlyphs" textLength="32" x="350.0857" y="320.0045">12x5</text><!--MD5=[197e28a9d2d75deb0b322acc8aab4869]
link Hole to Piece--><path codeLine="13" d="M487.3608,273.927 C487.3608,273.927 543.882,310.24 568.686,326.174 " fill="none" id="Hole-Piece" style="stroke: #A80036; stroke-width: 1.0;"/><polygon fill="#A80036" points="579.957,333.415,574.5474,325.1848,575.7504,330.7123,570.223,331.9153,579.957,333.415" style="stroke: #A80036; stroke-width: 1.0;"/><line style="stroke: #A80036; stroke-width: 1.0;" x1="575.7504" x2="569.0195" y1="330.7123" y2="326.388"/><polygon fill="#FFFFFF" points="477.264,267.442,480.1507,274.0501,487.3608,273.927,484.4741,267.3189,477.264,267.442" style="stroke: #A80036; stroke-width: 1.0;"/><text fill="#000000" font-family="sans-serif" font-size="13" lengthAdjust="spacingAndGlyphs" textLength="24" x="553.0204" y="322.6955">0..1</text><!--MD5=[1c0f42efa468144b5e315b77cd6e1914]
link Board to Hole--><path codeLine="14" d="M571.634,167.827 C571.634,167.827 513.292,204.421 488.432,220.013 " fill="none" id="Board-Hole" style="stroke: #A80036; stroke-width: 1.0;"/><polygon fill="#A80036" points="477.183,227.068,486.9328,225.6747,481.4188,224.4113,482.6821,218.8974,477.183,227.068" style="stroke: #A80036; stroke-width: 1.0;"/><line style="stroke: #A80036; stroke-width: 1.0;" x1="481.4188" x2="488.1965" y1="224.4113" y2="220.1605"/><polygon fill="#A80036" points="581.8,161.451,574.5917,161.2503,571.634,167.827,578.8423,168.0276,581.8,161.451" style="stroke: #A80036; stroke-width: 1.0;"/><text fill="#000000" font-family="sans-serif" font-size="13" lengthAdjust="spacingAndGlyphs" textLength="32" x="485.1207" y="219.4314">24x5</text><!--MD5=[315e95465f4a3d375be890562acf140f]
link Hole to Coordinate--><path codeLine="15" d="M462.668,281.8922 C462.668,281.8922 474.39,307.251 479.721,318.784 " fill="none" id="Hole-Coordinate" style="stroke: #A80036; stroke-width: 1.0;"/><polygon fill="#A80036" points="485.219,330.678,485.0737,320.8302,483.1211,326.1394,477.812,324.1868,485.219,330.678" style="stroke: #A80036; stroke-width: 1.0;"/><line style="stroke: #A80036; stroke-width: 1.0;" x1="483.1211" x2="479.764" y1="326.1394" y2="318.878"/><polygon fill="#A80036" points="457.632,271,456.5193,278.1247,462.668,281.8922,463.7807,274.7674,457.632,271" style="stroke: #A80036; stroke-width: 1.0;"/><!--MD5=[9cb7c0cf9a0771da5e41efe083a434eb]
link Shield to SecretCode--><path codeLine="17" d="M728.3203,282.9915 C728.3203,282.9915 729.214,306.677 729.618,317.364 " fill="none" id="Shield-SecretCode" style="stroke: #A80036; stroke-width: 1.0;"/><polygon fill="#A80036" points="730.12,330.678,733.7779,321.5336,729.9315,325.6816,725.7836,321.8352,730.12,330.678" style="stroke: #A80036; stroke-width: 1.0;"/><line style="stroke: #A80036; stroke-width: 1.0;" x1="729.9315" x2="729.6295" y1="325.6816" y2="317.6875"/><polygon fill="#A80036" points="727.868,271,724.097,277.1465,728.3203,282.9915,732.0913,276.845,727.868,271" style="stroke: #A80036; stroke-width: 1.0;"/><text fill="#000000" font-family="sans-serif" font-size="13" lengthAdjust="spacingAndGlyphs" textLength="8" x="720.9305" y="320.0045">1</text><!--MD5=[d0b970a62daa468220f7a6dede4d463e]
link Stock to Piece--><path codeLine="18" d="M614.6797,282.9915 C614.6797,282.9915 613.786,306.677 613.382,317.364 " fill="none" id="Stock-Piece" style="stroke: #A80036; stroke-width: 1.0;"/><polygon fill="#A80036" points="612.88,330.678,617.2164,321.8352,613.0685,325.6816,609.2221,321.5336,612.88,330.678" style="stroke: #A80036; stroke-width: 1.0;"/><line style="stroke: #A80036; stroke-width: 1.0;" x1="613.0685" x2="613.3705" y1="325.6816" y2="317.6875"/><polygon fill="#A80036" points="615.132,271,610.9087,276.845,614.6797,282.9915,618.903,277.1465,615.132,271" style="stroke: #A80036; stroke-width: 1.0;"/><text fill="#000000" font-family="sans-serif" font-size="13" lengthAdjust="spacingAndGlyphs" textLength="24" x="586.1695" y="320.0045">256</text><!--MD5=[2f378bb2f56593d68624f1790be1dbac]
link Piece to Color--><path codeLine="20" d="M569.4147,380.1398 C569.4147,380.1398 498.477,420.3502 468.439,437.3769 " fill="none" id="Piece-Color" style="stroke: #A80036; stroke-width: 1.0;"/><polygon fill="#A80036" points="457.039,443.8387,466.8411,442.8799,461.3887,441.3728,462.8957,435.9204,457.039,443.8387" style="stroke: #A80036; stroke-width: 1.0;"/><line style="stroke: #A80036; stroke-width: 1.0;" x1="461.3887" x2="468.349" y1="441.3728" y2="437.4279"/><polygon fill="#A80036" points="579.854,374.222,572.6617,373.7012,569.4147,380.1398,576.607,380.6607,579.854,374.222" style="stroke: #A80036; stroke-width: 1.0;"/><!--MD5=[190ddf6d0e4bcd2d681aea02895221b0]
link Piece to PieceTypeA--><path codeLine="21" d="M585.875,396.134 C580.396,404.5511 574.617,413.4291 569.137,421.8469 " fill="none" id="Piece-PieceTypeA" style="stroke: #A80036; stroke-width: 1.0;"/><polygon fill="#A80036" points="558.181,438.6784,566.4431,433.3176,560.9086,434.4879,559.7383,428.9534,558.181,438.6784" style="stroke: #A80036; stroke-width: 1.0;"/><line style="stroke: #A80036; stroke-width: 1.0;" x1="560.9086" x2="569.092" y1="434.4879" y2="421.9168"/><polygon fill="none" points="580.251,391.9433,597.028,379,591.984,399.5809,580.251,391.9433" style="stroke: #A80036; stroke-width: 1.0;"/><text fill="#000000" font-family="sans-serif" font-size="13" lengthAdjust="spacingAndGlyphs" textLength="24" x="534.9564" y="428.005">192</text><!--MD5=[bfe38eb70562cf5a5ac02f2eb30ffd6b]
link Piece to PieceTypeB--><path codeLine="22" d="M637.746,396.134 C643.074,404.4389 648.689,413.1924 654.025,421.5099 " fill="none" id="Piece-PieceTypeB" style="stroke: #A80036; stroke-width: 1.0;"/><polygon fill="#A80036" points="665.039,438.6784,663.5463,428.9433,662.3393,434.4699,656.8127,433.2629,665.039,438.6784" style="stroke: #A80036; stroke-width: 1.0;"/><line style="stroke: #A80036; stroke-width: 1.0;" x1="662.3393" x2="654.24" y1="434.4699" y2="421.8445"/><polygon fill="none" points="631.662,399.614,626.755,379,643.446,392.0546,631.662,399.614" style="stroke: #A80036; stroke-width: 1.0;"/><text fill="#000000" font-family="sans-serif" font-size="13" lengthAdjust="spacingAndGlyphs" textLength="16" x="643.4423" y="428.005">60</text><!--MD5=[bbaee0232d05e69a9ae1aca54f4b8e02]
link Piece to PieceTypeC--><path codeLine="23" d="M662.021,381.864 C689.784,396.22 724.582,414.2131 754.167,429.5106 " fill="none" id="Piece-PieceTypeC" style="stroke: #A80036; stroke-width: 1.0;"/><polygon fill="#A80036" points="772.265,438.8688,766.1081,431.1817,767.8237,436.5721,762.4333,438.2877,772.265,438.8688" style="stroke: #A80036; stroke-width: 1.0;"/><line style="stroke: #A80036; stroke-width: 1.0;" x1="767.8237" x2="754.4995" y1="436.5721" y2="429.6826"/><polygon fill="none" points="658.582,387.9666,644.031,372.562,665.012,375.531,658.582,387.9666" style="stroke: #A80036; stroke-width: 1.0;"/><text fill="#000000" font-family="sans-serif" font-size="13" lengthAdjust="spacingAndGlyphs" textLength="8" x="751.7767" y="427.8472">4</text><!--MD5=[5dd37025bd56d3ce0dc94ae780f62769]
link Action to Piece--><path codeLine="25" d="M464.972,163.309 C495.719,203.187 558.259,284.299 590.979,326.736 " fill="none" id="Action-to-Piece" style="stroke: #A80036; stroke-width: 1.0; stroke-dasharray: 7.0,7.0;"/><polygon fill="#A80036" points="594.05,330.72,591.7229,321.15,590.9972,326.7601,585.3871,326.0344,594.05,330.72" style="stroke: #A80036; stroke-width: 1.0;"/><text fill="#000000" font-family="sans-serif" font-size="13" lengthAdjust="spacingAndGlyphs" textLength="24" x="562.7497" y="320.0567">0..5</text><!--MD5=[77c1785537f25c6d88a9c2407a2b6d73]
link Action to PutAction--><path codeLine="26" d="M394.359,166.047 C333.126,198.304 231.678,258.024 163,331 C138.267,357.28 117.98,392.8805 104.4499,420.3358 " fill="none" id="Action-PutAction" style="stroke: #A80036; stroke-width: 1.0;"/><polygon fill="#A80036" points="95.8249,438.6384,103.2798,432.2022,97.9563,434.1154,96.043,428.792,95.8249,438.6384" style="stroke: #A80036; stroke-width: 1.0;"/><line style="stroke: #A80036; stroke-width: 1.0;" x1="97.9563" x2="104.3508" y1="434.1154" y2="420.5466"/><polygon fill="none" points="391.381,159.707,412.362,156.745,397.807,172.145,391.381,159.707" style="stroke: #A80036; stroke-width: 1.0;"/><!--MD5=[54c4a35b40d33fcdb73798b37710015d]
link Goal to PutAction--><path codeLine="27" d="M52.3304,379 C58.8779,395.1409 67.6707,416.8162 74.6288,433.9688 " fill="none" id="Goal-to-PutAction" style="stroke: #A80036; stroke-width: 1.0; stroke-dasharray: 7.0,7.0;"/><polygon fill="#A80036" points="76.5394,438.6784,76.8628,428.8349,74.6598,434.0451,69.4496,431.8422,76.5394,438.6784" style="stroke: #A80036; stroke-width: 1.0;"/><text fill="#000000" font-family="sans-serif" font-size="13" lengthAdjust="spacingAndGlyphs" textLength="24" x="47.3084" y="428.005">0..5</text><!--MD5=[681f602c9d54893db18e382a68e64f6e]
link Action to Hole--><path codeLine="28" d="M447,163 C447,179.003 447,200.446 447,217.528 " fill="none" id="Action-to-Hole" style="stroke: #A80036; stroke-width: 1.0; stroke-dasharray: 7.0,7.0;"/><polygon fill="#A80036" points="447,222.678,451,213.678,447,217.678,443,213.678,447,222.678" style="stroke: #A80036; stroke-width: 1.0;"/><!--MD5=[ac70d9993c6573df49118af0b8e84d15]
@startuml
Mastermind *- -> Turn
Turn - -> "2" Player
Mastermind *- -> "2" Player
Mastermind *- ->  "1" Board

Player o- -> Goal
Board *- -> "2" Stock
Board *- -> "1" Shield
Board *- -> "1" Ranking
Ranking *- -> "2" Players
Hole <|- -> "12x5" HoleTypeA
Hole <|- -> "12x5" HoleTypeB
Hole o- -> "0..1" Piece
Board *- -> "24x5" Hole
Hole *- -> Coordinate

Shield *- -> "1" SecretCode
Stock  *- -> "256" Piece

Piece *- -> Color
Piece <|- -> "192" PieceTypeA
Piece <|- -> "60" PieceTypeB
Piece <|- -> "4" PieceTypeC

Action ..> "0..5" Piece
Action <|- -> PutAction
Goal ..> "0..5" PutAction
Action ..> Hole
@enduml

PlantUML version 1.2020.19beta4(Unknown compile time)
(GPL source distribution)
Java Runtime: Java(TM) SE Runtime Environment
JVM: Java HotSpot(TM) 64-Bit Server VM
Default Encoding: UTF-8
Language: en
Country: US
--></g></svg>